<?xml version="1.0" encoding="UTF-8"?>
<svg width="80" height="80" viewBox="0 0 80 80" xmlns="http://www.w3.org/2000/svg">
  <circle cx="40" cy="40" r="40" fill="#e9c19c" />
  <g fill="none" stroke="#333" stroke-width="2.5" stroke-linecap="round">
    <path d="M30,35 C31.6568542,35 33,33.6568542 33,32 C33,30.3431458 31.6568542,29 30,29 C28.3431458,29 27,30.3431458 27,32 C27,33.6568542 28.3431458,35 30,35 Z" fill="#333" stroke="none" />
    <path d="M50,35 C51.6568542,35 53,33.6568542 53,32 C53,30.3431458 51.6568542,29 50,29 C48.3431458,29 47,30.3431458 47,32 C47,33.6568542 48.3431458,35 50,35 Z" fill="#333" stroke="none" />
    <path d="M25,50 C25,50 30,56 40,56 C50,56 55,50 55,50" />
    <path d="M20,25 L28,22" />
    <path d="M60,25 L52,22" />
  </g>
</svg> 